
<svg width="148" height="32" viewBox="0 0 1410 95" fill="none" xmlns="http://www.w3.org/2000/svg">
    <path d="M43.2383 1.41797H62.9258L107.223 93H87.7109L80.3867 77.5898H26.8906L19.8008 93H0.230469L43.2383 1.41797ZM73.0625 62.2969L53.2578 20.6953L33.9805 62.2969H73.0625ZM121.461 1.41797H168.043C175.074 1.41797 181.168 2.16016 186.324 3.64453C191.48 5.08984 195.758 7.19922 199.156 9.97266C202.555 12.7461 205.074 16.125 206.715 20.1094C208.395 24.0938 209.234 28.6055 209.234 33.6445C209.234 37.043 208.824 40.2852 208.004 43.3711C207.184 46.418 205.914 49.2305 204.195 51.8086C202.516 54.3867 200.387 56.6914 197.809 58.7227C195.23 60.7148 192.203 62.375 188.727 63.7031L208.648 93H185.914L168.688 66.9844H168.16L140.035 66.9258V93H121.461V1.41797ZM168.512 50.8711C172.027 50.8711 175.094 50.4609 177.711 49.6406C180.367 48.8203 182.574 47.668 184.332 46.1836C186.129 44.6992 187.457 42.9023 188.316 40.793C189.215 38.6445 189.664 36.2617 189.664 33.6445C189.664 28.5273 187.906 24.582 184.391 21.8086C180.875 18.9961 175.582 17.5898 168.512 17.5898H140.035V50.8711H168.512ZM262.496 1.41797H282.184L326.48 93H306.969L299.645 77.5898H246.148L239.059 93H219.488L262.496 1.41797ZM292.32 62.2969L272.516 20.6953L253.238 62.2969H292.32ZM340.719 1.41797H359.293V76.7109H412.555V93H340.719V1.41797ZM461.832 1.41797H481.52L525.816 93H506.305L498.98 77.5898H445.484L438.395 93H418.824L461.832 1.41797ZM491.656 62.2969L471.852 20.6953L452.574 62.2969H491.656ZM544.332 65.7539C547.652 67.6289 551.012 69.3281 554.41 70.8516C557.848 72.3359 561.402 73.6055 565.074 74.6602C568.746 75.6758 572.594 76.457 576.617 77.0039C580.68 77.5508 584.996 77.8242 589.566 77.8242C595.074 77.8242 599.762 77.4727 603.629 76.7695C607.496 76.0273 610.641 75.0312 613.062 73.7812C615.523 72.4922 617.301 70.9688 618.395 69.2109C619.527 67.4531 620.094 65.5391 620.094 63.4688C620.094 60.1484 618.707 57.5312 615.934 55.6172C613.16 53.6641 608.883 52.6875 603.102 52.6875C600.562 52.6875 597.887 52.8633 595.074 53.2148C592.262 53.5273 589.41 53.8789 586.52 54.2695C583.668 54.6602 580.836 55.0312 578.023 55.3828C575.25 55.6953 572.633 55.8516 570.172 55.8516C566.07 55.8516 562.125 55.3242 558.336 54.2695C554.586 53.2148 551.246 51.6328 548.316 49.5234C545.426 47.4141 543.121 44.7773 541.402 41.6133C539.684 38.4492 538.824 34.7578 538.824 30.5391C538.824 28.0391 539.156 25.5586 539.82 23.0977C540.523 20.6367 541.617 18.293 543.102 16.0664C544.625 13.8008 546.578 11.7109 548.961 9.79688C551.344 7.84375 554.215 6.16406 557.574 4.75781C560.973 3.35156 564.879 2.25781 569.293 1.47656C573.746 0.65625 578.805 0.246094 584.469 0.246094C588.57 0.246094 592.691 0.480469 596.832 0.949219C600.973 1.37891 604.996 2.00391 608.902 2.82422C612.848 3.64453 616.637 4.64062 620.27 5.8125C623.902 6.94531 627.281 8.21484 630.406 9.62109L622.262 24.6211C619.684 23.4883 616.91 22.4531 613.941 21.5156C610.973 20.5391 607.867 19.6992 604.625 18.9961C601.383 18.293 598.023 17.7461 594.547 17.3555C591.109 16.9258 587.594 16.7109 584 16.7109C578.883 16.7109 574.664 17.082 571.344 17.8242C568.062 18.5664 565.445 19.5234 563.492 20.6953C561.539 21.8281 560.172 23.1172 559.391 24.5625C558.648 25.9688 558.277 27.375 558.277 28.7812C558.277 31.5156 559.508 33.7617 561.969 35.5195C564.43 37.2383 568.18 38.0977 573.219 38.0977C575.25 38.0977 577.574 37.9609 580.191 37.6875C582.848 37.375 585.621 37.043 588.512 36.6914C591.441 36.3398 594.41 36.0273 597.418 35.7539C600.465 35.4414 603.414 35.2852 606.266 35.2852C611.656 35.2852 616.422 35.8906 620.562 37.1016C624.742 38.3125 628.238 40.0508 631.051 42.3164C633.863 44.543 635.992 47.2578 637.438 50.4609C638.883 53.625 639.605 57.1797 639.605 61.125C639.605 66.3984 638.375 71.1055 635.914 75.2461C633.492 79.3477 630.016 82.8242 625.484 85.6758C620.992 88.4883 615.562 90.6367 609.195 92.1211C602.828 93.5664 595.738 94.2891 587.926 94.2891C582.77 94.2891 577.73 93.957 572.809 93.293C567.887 92.668 563.16 91.7695 558.629 90.5977C554.137 89.3867 549.84 87.9609 545.738 86.3203C541.676 84.6406 537.906 82.8047 534.43 80.8125L544.332 65.7539ZM659.996 1.41797H678.57V25.3242H735.523V1.41797H754.156V93H735.523V41.2031H678.57V93H659.996V1.41797ZM778.355 82.8633C778.355 81.3008 778.668 79.8359 779.293 78.4688C779.957 77.0625 780.895 75.8516 782.105 74.8359C783.316 73.7812 784.781 72.9609 786.5 72.375C788.219 71.7891 790.152 71.4961 792.301 71.4961C794.449 71.4961 796.383 71.7891 798.102 72.375C799.82 72.9609 801.266 73.7812 802.438 74.8359C803.648 75.8516 804.566 77.0625 805.191 78.4688C805.855 79.8359 806.188 81.3008 806.188 82.8633C806.188 84.4258 805.855 85.9102 805.191 87.3164C804.566 88.6836 803.648 89.875 802.438 90.8906C801.266 91.9062 799.82 92.707 798.102 93.293C796.383 93.918 794.449 94.2305 792.301 94.2305C790.152 94.2305 788.219 93.918 786.5 93.293C784.781 92.707 783.316 91.9062 782.105 90.8906C780.895 89.875 779.957 88.6836 779.293 87.3164C778.668 85.9102 778.355 84.4258 778.355 82.8633ZM834.723 65.7539C838.043 67.6289 841.402 69.3281 844.801 70.8516C848.238 72.3359 851.793 73.6055 855.465 74.6602C859.137 75.6758 862.984 76.457 867.008 77.0039C871.07 77.5508 875.387 77.8242 879.957 77.8242C885.465 77.8242 890.152 77.4727 894.02 76.7695C897.887 76.0273 901.031 75.0312 903.453 73.7812C905.914 72.4922 907.691 70.9688 908.785 69.2109C909.918 67.4531 910.484 65.5391 910.484 63.4688C910.484 60.1484 909.098 57.5312 906.324 55.6172C903.551 53.6641 899.273 52.6875 893.492 52.6875C890.953 52.6875 888.277 52.8633 885.465 53.2148C882.652 53.5273 879.801 53.8789 876.91 54.2695C874.059 54.6602 871.227 55.0312 868.414 55.3828C865.641 55.6953 863.023 55.8516 860.562 55.8516C856.461 55.8516 852.516 55.3242 848.727 54.2695C844.977 53.2148 841.637 51.6328 838.707 49.5234C835.816 47.4141 833.512 44.7773 831.793 41.6133C830.074 38.4492 829.215 34.7578 829.215 30.5391C829.215 28.0391 829.547 25.5586 830.211 23.0977C830.914 20.6367 832.008 18.293 833.492 16.0664C835.016 13.8008 836.969 11.7109 839.352 9.79688C841.734 7.84375 844.605 6.16406 847.965 4.75781C851.363 3.35156 855.27 2.25781 859.684 1.47656C864.137 0.65625 869.195 0.246094 874.859 0.246094C878.961 0.246094 883.082 0.480469 887.223 0.949219C891.363 1.37891 895.387 2.00391 899.293 2.82422C903.238 3.64453 907.027 4.64062 910.66 5.8125C914.293 6.94531 917.672 8.21484 920.797 9.62109L912.652 24.6211C910.074 23.4883 907.301 22.4531 904.332 21.5156C901.363 20.5391 898.258 19.6992 895.016 18.9961C891.773 18.293 888.414 17.7461 884.938 17.3555C881.5 16.9258 877.984 16.7109 874.391 16.7109C869.273 16.7109 865.055 17.082 861.734 17.8242C858.453 18.5664 855.836 19.5234 853.883 20.6953C851.93 21.8281 850.562 23.1172 849.781 24.5625C849.039 25.9688 848.668 27.375 848.668 28.7812C848.668 31.5156 849.898 33.7617 852.359 35.5195C854.82 37.2383 858.57 38.0977 863.609 38.0977C865.641 38.0977 867.965 37.9609 870.582 37.6875C873.238 37.375 876.012 37.043 878.902 36.6914C881.832 36.3398 884.801 36.0273 887.809 35.7539C890.855 35.4414 893.805 35.2852 896.656 35.2852C902.047 35.2852 906.812 35.8906 910.953 37.1016C915.133 38.3125 918.629 40.0508 921.441 42.3164C924.254 44.543 926.383 47.2578 927.828 50.4609C929.273 53.625 929.996 57.1797 929.996 61.125C929.996 66.3984 928.766 71.1055 926.305 75.2461C923.883 79.3477 920.406 82.8242 915.875 85.6758C911.383 88.4883 905.953 90.6367 899.586 92.1211C893.219 93.5664 886.129 94.2891 878.316 94.2891C873.16 94.2891 868.121 93.957 863.199 93.293C858.277 92.668 853.551 91.7695 849.02 90.5977C844.527 89.3867 840.23 87.9609 836.129 86.3203C832.066 84.6406 828.297 82.8047 824.82 80.8125L834.723 65.7539ZM978.043 17.707H944.234V1.41797H1030.43V17.707H996.617V93H978.043V17.707ZM1046.83 1.41797H1065.41V51.8672C1065.41 56.0078 1065.97 59.6992 1067.11 62.9414C1068.24 66.1445 1069.92 68.8594 1072.14 71.0859C1074.41 73.3125 1077.2 75.0117 1080.52 76.1836C1083.84 77.3164 1087.71 77.8828 1092.12 77.8828C1096.5 77.8828 1100.35 77.3164 1103.67 76.1836C1107.03 75.0117 1109.82 73.3125 1112.05 71.0859C1114.31 68.8594 1116.01 66.1445 1117.14 62.9414C1118.28 59.6992 1118.84 56.0078 1118.84 51.8672V1.41797H1137.42V54.0938C1137.42 60.1094 1136.4 65.5781 1134.37 70.5C1132.34 75.4219 1129.39 79.6406 1125.52 83.1562C1121.66 86.6719 1116.91 89.3867 1111.29 91.3008C1105.7 93.2148 1099.31 94.1719 1092.12 94.1719C1084.94 94.1719 1078.53 93.2148 1072.91 91.3008C1067.32 89.3867 1062.59 86.6719 1058.73 83.1562C1054.86 79.6406 1051.91 75.4219 1049.88 70.5C1047.85 65.5781 1046.83 60.1094 1046.83 54.0938V1.41797ZM1160.09 1.41797H1193.67C1203.47 1.41797 1211.99 2.47266 1219.21 4.58203C1226.44 6.69141 1232.42 9.71875 1237.14 13.6641C1241.91 17.5703 1245.45 22.3359 1247.75 27.9609C1250.09 33.5469 1251.27 39.8359 1251.27 46.8281C1251.27 53.4688 1250.11 59.6211 1247.81 65.2852C1245.5 70.9102 1241.99 75.793 1237.26 79.9336C1232.54 84.0352 1226.56 87.2578 1219.33 89.6016C1212.11 91.9062 1203.59 93.0586 1193.79 93.0586L1160.09 93V1.41797ZM1198.24 76.9453C1203.79 76.9453 1208.65 76.2422 1212.83 74.8359C1217.01 73.3906 1220.48 71.3594 1223.26 68.7422C1226.07 66.125 1228.18 62.9609 1229.59 59.25C1230.99 55.5391 1231.7 51.3984 1231.7 46.8281C1231.7 42.3359 1230.99 38.293 1229.59 34.6992C1228.18 31.0664 1226.07 28 1223.26 25.5C1220.48 22.9609 1217.01 21.0078 1212.83 19.6406C1208.65 18.2734 1203.79 17.5898 1198.24 17.5898H1178.67V76.9453H1198.24ZM1267.55 1.41797H1286.25V93H1267.55V1.41797ZM1304.59 46.9453C1304.59 40.0312 1305.86 33.7031 1308.39 27.9609C1310.93 22.2188 1314.49 17.2969 1319.06 13.1953C1323.67 9.05469 1329.18 5.85156 1335.58 3.58594C1342.03 1.32031 1349.16 0.1875 1356.97 0.1875C1364.74 0.1875 1371.85 1.32031 1378.3 3.58594C1384.74 5.85156 1390.25 9.05469 1394.82 13.1953C1399.43 17.2969 1403 22.2188 1405.54 27.9609C1408.08 33.7031 1409.35 40.0312 1409.35 46.9453C1409.35 53.8984 1408.08 60.2852 1405.54 66.1055C1403 71.8867 1399.43 76.8672 1394.82 81.0469C1390.25 85.2266 1384.74 88.4883 1378.3 90.832C1371.85 93.1367 1364.74 94.2891 1356.97 94.2891C1349.16 94.2891 1342.03 93.1367 1335.58 90.832C1329.18 88.4883 1323.67 85.2266 1319.06 81.0469C1314.49 76.8672 1310.93 71.8867 1308.39 66.1055C1305.86 60.2852 1304.59 53.8984 1304.59 46.9453ZM1323.16 46.9453C1323.16 51.6719 1324 55.9297 1325.68 59.7188C1327.4 63.5078 1329.76 66.75 1332.77 69.4453C1335.82 72.1016 1339.39 74.1523 1343.49 75.5977C1347.63 77.043 1352.12 77.7656 1356.97 77.7656C1361.81 77.7656 1366.29 77.043 1370.39 75.5977C1374.53 74.1523 1378.1 72.1016 1381.11 69.4453C1384.12 66.75 1386.48 63.5078 1388.2 59.7188C1389.92 55.9297 1390.78 51.6719 1390.78 46.9453C1390.78 42.2188 1389.92 37.9805 1388.2 34.2305C1386.48 30.4805 1384.12 27.3164 1381.11 24.7383C1378.1 22.1211 1374.53 20.1289 1370.39 18.7617C1366.29 17.3945 1361.81 16.7109 1356.97 16.7109C1352.12 16.7109 1347.63 17.3945 1343.49 18.7617C1339.39 20.1289 1335.82 22.1211 1332.77 24.7383C1329.76 27.3164 1327.4 30.4805 1325.68 34.2305C1324 37.9805 1323.16 42.2188 1323.16 46.9453Z" fill="black"/>
    </svg>
    